<?xml version="1.0" standalone="no"?>
<!DOCTYPE svg PUBLIC "-//W3C//DTD SVG 20010904//EN"
 "http://www.w3.org/TR/2001/REC-SVG-20010904/DTD/svg10.dtd">
<svg version="1.0" xmlns="http://www.w3.org/2000/svg"
 width="512.000000pt" height="512.000000pt" viewBox="0 0 512.000000 512.000000"
 preserveAspectRatio="xMidYMid meet">

<g transform="translate(0.000000,512.000000) scale(0.100000,-0.100000)"
fill="#f8f8ff" stroke="none">
<path d="M2775 4373 c-22 -9 -62 -33 -90 -53 -44 -33 -74 -78 -257 -381 -114
-189 -221 -359 -239 -377 -18 -19 -56 -46 -84 -60 l-50 -27 -740 -6 c-643 -5
-748 -8 -802 -22 -228 -61 -404 -226 -481 -452 l-27 -80 0 -815 0 -815 23 -75
c36 -116 85 -196 176 -285 63 -62 100 -90 166 -122 158 -78 -15 -73 2190 -73
2205 0 2032 -5 2190 73 66 32 103 60 166 122 91 89 140 169 176 285 l23 75 0
1275 0 1275 -23 75 c-36 116 -85 196 -176 285 -63 62 -100 90 -166 122 -152
75 -112 73 -1075 72 -764 0 -864 -2 -900 -16z m-265 -1426 c13 -7 35 -28 48
-47 l23 -34 -3 -581 -3 -580 -34 -70 c-127 -259 -472 -345 -611 -153 -80 110
-62 289 42 420 80 101 229 174 343 166 l55 -3 0 227 c0 178 -3 226 -12 223 -7
-2 -177 -48 -378 -101 -201 -53 -371 -101 -377 -106 -10 -8 -13 -90 -13 -347
0 -443 -13 -500 -134 -624 -177 -179 -439 -178 -540 3 -28 49 -31 63 -30 135
1 100 26 169 91 250 88 108 203 166 331 168 l72 0 0 382 c0 304 3 385 14 400
9 13 144 53 512 151 274 72 517 132 539 133 22 0 51 -5 65 -12z m1275 -159
c34 -18 66 -51 86 -88 11 -19 15 -93 17 -317 l3 -291 161 -4 c153 -3 161 -4
178 -26 15 -18 17 -28 9 -50 -13 -36 -584 -608 -631 -633 -44 -22 -106 -25
-151 -5 -44 19 -647 626 -647 651 1 54 39 65 216 65 l144 0 0 287 c0 270 1
289 21 330 24 49 61 79 115 92 22 6 131 9 244 8 169 -2 210 -5 235 -19z"/>
<path d="M535 4103 c-194 -41 -367 -173 -457 -348 -59 -114 -70 -164 -74 -355
l-5 -175 22 30 c41 56 165 173 220 208 62 40 152 79 237 104 51 15 139 18 797
23 682 5 743 6 772 23 50 27 66 48 195 262 67 110 128 210 136 223 l14 22
-893 -1 c-754 -1 -905 -3 -964 -16z"/>
</g>
</svg>
